G04*
G04 #@! TF.GenerationSoftware,Altium Limited,Altium Designer,23.8.1 (32)*
G04*
G04 Layer_Color=65535*
%FSLAX25Y25*%
%MOIN*%
G70*
G04*
G04 #@! TF.SameCoordinates,42C2680F-6346-4846-91F9-FAAF1016F3F0*
G04*
G04*
G04 #@! TF.FilePolarity,Positive*
G04*
G01*
G75*
%ADD10C,0.00787*%
%ADD11C,0.01181*%
%ADD12C,0.00500*%
%ADD13C,0.01000*%
D10*
X527378Y360480D02*
X526590D01*
X527378D01*
X521055Y290216D02*
X520268D01*
X521055D01*
Y320728D02*
X520268D01*
X521055D01*
X519479Y155551D02*
X518692D01*
X519479D01*
X521055Y428610D02*
X520268D01*
X521055D01*
X639044Y368425D02*
X638257D01*
X639044D01*
X633651Y365472D02*
X643651D01*
Y145473D02*
Y365472D01*
X633651Y145473D02*
X643651D01*
X633651D02*
Y365472D01*
X526476Y155945D02*
Y157520D01*
X520768Y155945D02*
Y157520D01*
D11*
X523722Y459454D02*
X523131Y460044D01*
X522540Y459454D01*
X523131Y458863D01*
X523722Y459454D01*
D12*
X530984Y118976D02*
X630984D01*
Y365984D01*
X530984D02*
X630984D01*
X530984Y118976D02*
Y365984D01*
X506961Y303996D02*
X512591D01*
X495858Y286161D02*
Y299193D01*
X506961Y281358D02*
X512591D01*
Y287776D01*
Y297579D02*
Y303996D01*
X506961Y334508D02*
X512591D01*
X495858Y316673D02*
Y329705D01*
X506961Y311870D02*
X512591D01*
Y318287D01*
Y328091D02*
Y334508D01*
X506960Y189016D02*
X512590D01*
Y182618D02*
Y189016D01*
Y146693D02*
Y153091D01*
X506960Y146693D02*
X512590D01*
X495857Y151516D02*
Y184193D01*
X506961Y457154D02*
X512591D01*
X495858Y424555D02*
Y452350D01*
X506961Y419752D02*
X512591D01*
Y426169D01*
Y450736D02*
Y457154D01*
X527131Y393454D02*
Y483454D01*
X647131D01*
Y393454D02*
Y483454D01*
X527131Y393454D02*
X647131D01*
D13*
X664354Y149622D02*
X658356D01*
X660356Y151621D01*
X658356Y153621D01*
X664354D01*
Y156620D02*
Y158619D01*
X663355Y159619D01*
X661355D01*
X660356Y158619D01*
Y156620D01*
X661355Y155620D01*
X663355D01*
X664354Y156620D01*
X659356Y162618D02*
X660356D01*
Y161618D01*
Y163618D01*
Y162618D01*
X663355D01*
X664354Y163618D01*
Y167616D02*
Y169616D01*
X663355Y170615D01*
X661355D01*
X660356Y169616D01*
Y167616D01*
X661355Y166616D01*
X663355D01*
X664354Y167616D01*
X660356Y172615D02*
X664354D01*
X662355D01*
X661355Y173614D01*
X660356Y174614D01*
Y175614D01*
X658356Y184611D02*
Y188609D01*
Y186610D01*
X664354D01*
Y193608D02*
Y191609D01*
X663355Y190609D01*
X661355D01*
X660356Y191609D01*
Y193608D01*
X661355Y194607D01*
X662355D01*
Y190609D01*
X664354Y196607D02*
Y199606D01*
X663355Y200606D01*
X662355Y199606D01*
Y197607D01*
X661355Y196607D01*
X660356Y197607D01*
Y200606D01*
X659356Y203605D02*
X660356D01*
Y202605D01*
Y204604D01*
Y203605D01*
X663355D01*
X664354Y204604D01*
Y210602D02*
Y208603D01*
X663355Y207603D01*
X661355D01*
X660356Y208603D01*
Y210602D01*
X661355Y211602D01*
X662355D01*
Y207603D01*
X660356Y213601D02*
X664354D01*
X662355D01*
X661355Y214601D01*
X660356Y215601D01*
Y216600D01*
X658356Y225598D02*
X662355D01*
X664354Y227597D01*
X662355Y229596D01*
X658356D01*
X664354Y231595D02*
Y233595D01*
Y232595D01*
X658356D01*
X659356Y231595D01*
X664354Y236594D02*
X663355D01*
Y237594D01*
X664354D01*
Y236594D01*
X659356Y241592D02*
X658356Y242592D01*
Y244591D01*
X659356Y245591D01*
X663355D01*
X664354Y244591D01*
Y242592D01*
X663355Y241592D01*
X659356D01*
X654512Y149622D02*
X648514D01*
X650513Y151621D01*
X648514Y153621D01*
X654512D01*
X650513Y156620D02*
Y158619D01*
X651513Y159619D01*
X654512D01*
Y156620D01*
X653512Y155620D01*
X652512Y156620D01*
Y159619D01*
X650513Y161618D02*
X654512D01*
X652512D01*
X651513Y162618D01*
X650513Y163618D01*
Y164617D01*
X654512Y167616D02*
X648514D01*
X652512D02*
X650513Y170615D01*
X652512Y167616D02*
X654512Y170615D01*
X650513Y173614D02*
X653512D01*
X654512Y174614D01*
Y177613D01*
X650513D01*
X654512Y179612D02*
Y182611D01*
X653512Y183611D01*
X652512Y182611D01*
Y180612D01*
X651513Y179612D01*
X650513Y180612D01*
Y183611D01*
X654512Y191609D02*
X648514D01*
Y194607D01*
X649513Y195607D01*
X651513D01*
X652512Y194607D01*
Y191609D01*
X654512Y200606D02*
Y198606D01*
X653512Y197607D01*
X651513D01*
X650513Y198606D01*
Y200606D01*
X651513Y201605D01*
X652512D01*
Y197607D01*
X648514Y207603D02*
X654512D01*
Y204604D01*
X653512Y203605D01*
X651513D01*
X650513Y204604D01*
Y207603D01*
X654512Y212602D02*
Y210602D01*
X653512Y209603D01*
X651513D01*
X650513Y210602D01*
Y212602D01*
X651513Y213601D01*
X652512D01*
Y209603D01*
X650513Y215601D02*
X654512D01*
X652512D01*
X651513Y216600D01*
X650513Y217600D01*
Y218600D01*
X654512Y221599D02*
Y224598D01*
X653512Y225598D01*
X652512Y224598D01*
Y222598D01*
X651513Y221599D01*
X650513Y222598D01*
Y225598D01*
X654512Y230596D02*
Y228596D01*
X653512Y227597D01*
X651513D01*
X650513Y228596D01*
Y230596D01*
X651513Y231595D01*
X652512D01*
Y227597D01*
X654512Y233595D02*
X650513D01*
Y236594D01*
X651513Y237594D01*
X654512D01*
X497063Y194836D02*
Y200834D01*
X500062D01*
X501062Y199834D01*
Y197835D01*
X500062Y196835D01*
X497063D01*
X503061Y200834D02*
Y194836D01*
X505060Y196835D01*
X507060Y194836D01*
Y200834D01*
X509059Y194836D02*
Y200834D01*
X512058D01*
X513058Y199834D01*
Y197835D01*
X512058Y196835D01*
X509059D01*
X511059D02*
X513058Y194836D01*
X497063Y270623D02*
Y276621D01*
X500062D01*
X501062Y275621D01*
Y273622D01*
X500062Y272622D01*
X497063D01*
X503061Y276621D02*
Y270623D01*
X505060Y272622D01*
X507060Y270623D01*
Y276621D01*
X509059Y270623D02*
Y276621D01*
X511059Y274622D01*
X513058Y276621D01*
Y270623D01*
X519056D02*
X515057D01*
X519056Y274622D01*
Y275621D01*
X518056Y276621D01*
X516057D01*
X515057Y275621D01*
X497063Y339521D02*
Y345519D01*
X500062D01*
X501062Y344519D01*
Y342520D01*
X500062Y341520D01*
X497063D01*
X503061Y345519D02*
Y339521D01*
X505060Y341520D01*
X507060Y339521D01*
Y345519D01*
X509059Y339521D02*
Y345519D01*
X511059Y343519D01*
X513058Y345519D01*
Y339521D01*
X515057D02*
X517057D01*
X516057D01*
Y345519D01*
X515057Y344519D01*
X497063Y414416D02*
Y408418D01*
X501062D01*
X507060Y413417D02*
X506060Y414416D01*
X504061D01*
X503061Y413417D01*
Y409418D01*
X504061Y408418D01*
X506060D01*
X507060Y409418D01*
M02*
