G04*
G04 #@! TF.GenerationSoftware,Altium Limited,Altium Designer,23.8.1 (32)*
G04*
G04 Layer_Color=16711935*
%FSLAX25Y25*%
%MOIN*%
G70*
G04*
G04 #@! TF.SameCoordinates,42C2680F-6346-4846-91F9-FAAF1016F3F0*
G04*
G04*
G04 #@! TF.FilePolarity,Positive*
G04*
G01*
G75*
%ADD13C,0.01000*%
D13*
X511712Y486122D02*
X510975Y486807D01*
X510190Y487436D01*
X509361Y488007D01*
X508492Y488516D01*
X507588Y488959D01*
X506655Y489336D01*
X505697Y489643D01*
X504718Y489880D01*
X503725Y490045D01*
X502723Y490137D01*
X501717Y490155D01*
X500712Y490100D01*
X499714Y489972D01*
X498727Y489771D01*
X497758Y489499D01*
X496812Y489156D01*
X495893Y488746D01*
X495006Y488269D01*
X494157Y487729D01*
X493349Y487129D01*
X492587Y486471D01*
X491876Y485759D01*
X491218Y484997D01*
X490617Y484190D01*
X490077Y483340D01*
X489601Y482454D01*
X489190Y481535D01*
X488848Y480588D01*
X488576Y479619D01*
X488375Y478633D01*
X488246Y477635D01*
X488191Y476630D01*
X488210Y475623D01*
X488302Y474621D01*
X488466Y473628D01*
X488703Y472650D01*
X489010Y471691D01*
X489387Y470758D01*
X489831Y469855D01*
X490340Y468986D01*
X490910Y468157D01*
X491540Y467372D01*
X492225Y466634D01*
Y135728D02*
X491540Y134991D01*
X490910Y134205D01*
X490340Y133376D01*
X489831Y132508D01*
X489387Y131604D01*
X489010Y130671D01*
X488703Y129712D01*
X488466Y128734D01*
X488302Y127741D01*
X488210Y126739D01*
X488191Y125733D01*
X488246Y124728D01*
X488375Y123729D01*
X488576Y122743D01*
X488848Y121774D01*
X489190Y120827D01*
X489601Y119908D01*
X490077Y119022D01*
X490617Y118173D01*
X491218Y117365D01*
X491876Y116603D01*
X492587Y115891D01*
X493349Y115233D01*
X494157Y114633D01*
X495006Y114093D01*
X495893Y113617D01*
X496812Y113206D01*
X497758Y112864D01*
X498727Y112591D01*
X499714Y112390D01*
X500712Y112262D01*
X501717Y112207D01*
X502723Y112225D01*
X503725Y112317D01*
X504718Y112482D01*
X505697Y112719D01*
X506655Y113026D01*
X507588Y113403D01*
X508492Y113847D01*
X509360Y114355D01*
X510190Y114926D01*
X510975Y115555D01*
X511712Y116241D01*
X653642Y116241D02*
X654379Y115555D01*
X655165Y114926D01*
X655994Y114355D01*
X656862Y113847D01*
X657766Y113403D01*
X658699Y113026D01*
X659658Y112719D01*
X660636Y112482D01*
X661629Y112317D01*
X662631Y112225D01*
X663637Y112207D01*
X664642Y112262D01*
X665641Y112390D01*
X666627Y112591D01*
X667596Y112864D01*
X668542Y113206D01*
X669461Y113617D01*
X670348Y114093D01*
X671198Y114633D01*
X672005Y115233D01*
X672767Y115891D01*
X673479Y116603D01*
X674137Y117365D01*
X674737Y118173D01*
X675277Y119022D01*
X675753Y119908D01*
X676164Y120827D01*
X676506Y121774D01*
X676779Y122743D01*
X676980Y123729D01*
X677108Y124727D01*
X677163Y125733D01*
X677145Y126739D01*
X677053Y127741D01*
X676888Y128734D01*
X676651Y129712D01*
X676344Y130671D01*
X675967Y131604D01*
X675523Y132508D01*
X675015Y133376D01*
X674444Y134205D01*
X673815Y134991D01*
X673130Y135728D01*
X673129Y466634D02*
X673815Y467372D01*
X674444Y468157D01*
X675015Y468986D01*
X675523Y469855D01*
X675967Y470758D01*
X676344Y471691D01*
X676651Y472650D01*
X676888Y473628D01*
X677053Y474621D01*
X677145Y475623D01*
X677163Y476630D01*
X677108Y477635D01*
X676980Y478633D01*
X676779Y479619D01*
X676506Y480588D01*
X676164Y481535D01*
X675754Y482454D01*
X675277Y483340D01*
X674737Y484190D01*
X674137Y484997D01*
X673479Y485759D01*
X672767Y486471D01*
X672005Y487129D01*
X671198Y487729D01*
X670348Y488269D01*
X669462Y488746D01*
X668543Y489156D01*
X667596Y489499D01*
X666627Y489771D01*
X665641Y489972D01*
X664643Y490100D01*
X663638Y490155D01*
X662631Y490137D01*
X661629Y490045D01*
X660636Y489880D01*
X659658Y489644D01*
X658699Y489336D01*
X657766Y488959D01*
X656863Y488516D01*
X655994Y488007D01*
X655165Y487436D01*
X654380Y486807D01*
X653642Y486122D01*
X673228Y135827D02*
Y466535D01*
X511811Y116142D02*
X653543D01*
X492126Y135827D02*
Y466535D01*
X511811Y486221D02*
X519685D01*
X653543D01*
M02*
