G04*
G04 #@! TF.GenerationSoftware,Altium Limited,Altium Designer,23.8.1 (32)*
G04*
G04 Layer_Color=16711935*
%FSLAX25Y25*%
%MOIN*%
G70*
G04*
G04 #@! TF.SameCoordinates,42C2680F-6346-4846-91F9-FAAF1016F3F0*
G04*
G04*
G04 #@! TF.FilePolarity,Positive*
G04*
G01*
G75*
%ADD10C,0.00787*%
%ADD12C,0.00500*%
%ADD41C,0.00394*%
D10*
X527378Y360480D02*
X526590D01*
X527378D01*
X521055Y290216D02*
X520268D01*
X521055D01*
Y320728D02*
X520268D01*
X521055D01*
X519479Y155551D02*
X518692D01*
X519479D01*
X521055Y428610D02*
X520268D01*
X521055D01*
X639044Y368425D02*
X638257D01*
X639044D01*
D12*
X530984Y118976D02*
X630984D01*
Y365984D01*
X530984D02*
X630984D01*
X530984Y118976D02*
Y365984D01*
X495858Y303996D02*
X512591D01*
X495858Y281358D02*
Y303996D01*
Y281358D02*
X512591D01*
Y303996D01*
X495858Y334508D02*
X512591D01*
X495858Y311870D02*
Y334508D01*
Y311870D02*
X512591D01*
Y334508D01*
X495857Y189016D02*
X512590D01*
Y146693D02*
Y189016D01*
X495857Y146693D02*
X512590D01*
X495857D02*
Y189016D01*
X495858Y457154D02*
X512591D01*
X495858Y419752D02*
Y457154D01*
Y419752D02*
X512591D01*
Y457154D01*
X527131Y483454D02*
X647131D01*
Y393454D02*
Y483454D01*
X527131Y393454D02*
X647131D01*
X527131D02*
Y483454D01*
D41*
X633651Y365472D02*
X643651D01*
Y145473D02*
Y365472D01*
X633651Y145473D02*
X643651D01*
X633651D02*
Y365472D01*
X521161Y152795D02*
X526083D01*
Y160669D01*
X521161D02*
X526083D01*
X521161Y152795D02*
Y160669D01*
M02*
