M48
;Layer_Color=9474304
;FILE_FORMAT=2:4
INCH,TZ
;TYPE=PLATED
T01F00S00C0.0118
T02F00S00C0.0400
T03F00S00C0.0402
T04F00S00C0.1378
%
T01
X50000Y14468
X52362Y14961
X51870Y17524
Y18016
X50000Y19094
X50019Y27925
Y30610
Y30976
X51870Y29514
Y32565
X50019Y33661
Y41765
Y45926
T02
X53213Y41845
Y42845
Y43845
Y44845
Y45845
X61213Y42845
Y41845
X64213
Y42845
Y43845
Y44845
Y45845
T03
X53598Y15047
X62598
X63865
Y16047
Y17047
Y18047
Y19047
Y20047
Y21047
Y22047
Y23047
Y24047
Y25047
Y26047
Y27047
Y28047
Y29047
Y30047
Y31047
X62598
Y30047
Y29047
Y28047
Y27047
Y26047
Y25047
Y24047
Y23047
Y22047
Y21047
Y20047
Y19047
Y18047
Y17047
Y16047
X53598
Y17047
Y18047
Y19047
Y20047
Y21047
Y22047
Y23047
Y24047
Y25047
Y26047
Y27047
Y28047
Y29047
Y30047
Y31047
Y32047
Y33047
Y34047
Y35047
Y36047
X62598
Y35047
Y34047
Y33047
Y32047
X63865
Y33047
Y34047
Y35047
Y36047
T04
X50197Y12598
X66339
X66339Y47638
X50197Y47638
M30
