G04*
G04 #@! TF.GenerationSoftware,Altium Limited,Altium Designer,23.8.1 (32)*
G04*
G04 Layer_Color=16711935*
%FSLAX25Y25*%
%MOIN*%
G70*
G04*
G04 #@! TF.SameCoordinates,42C2680F-6346-4846-91F9-FAAF1016F3F0*
G04*
G04*
G04 #@! TF.FilePolarity,Negative*
G04*
G01*
G75*
%ADD19C,0.06614*%
%ADD20R,0.06614X0.06614*%
%ADD21C,0.20276*%
%ADD22R,0.06614X0.06614*%
%ADD23C,0.07991*%
%ADD24C,0.02953*%
D19*
X625984Y360472D02*
D03*
Y350472D02*
D03*
Y340472D02*
D03*
Y330472D02*
D03*
Y320472D02*
D03*
Y310472D02*
D03*
Y300472D02*
D03*
Y290472D02*
D03*
Y280472D02*
D03*
Y270472D02*
D03*
Y260472D02*
D03*
Y250472D02*
D03*
Y240472D02*
D03*
Y230472D02*
D03*
Y220472D02*
D03*
Y210472D02*
D03*
Y200472D02*
D03*
Y190472D02*
D03*
Y180473D02*
D03*
Y170473D02*
D03*
Y160473D02*
D03*
X535984Y350472D02*
D03*
Y340472D02*
D03*
Y330472D02*
D03*
Y320472D02*
D03*
Y310472D02*
D03*
Y300472D02*
D03*
Y290472D02*
D03*
Y280472D02*
D03*
Y270472D02*
D03*
Y260472D02*
D03*
Y250472D02*
D03*
Y240472D02*
D03*
Y230472D02*
D03*
Y220472D02*
D03*
Y210472D02*
D03*
Y200472D02*
D03*
Y190472D02*
D03*
Y180473D02*
D03*
Y170473D02*
D03*
Y160473D02*
D03*
X625984Y150472D02*
D03*
X535984D02*
D03*
X638651Y350472D02*
D03*
Y340472D02*
D03*
Y330472D02*
D03*
Y320472D02*
D03*
Y310472D02*
D03*
Y300472D02*
D03*
Y290472D02*
D03*
Y280472D02*
D03*
Y270472D02*
D03*
Y260472D02*
D03*
Y250472D02*
D03*
Y240472D02*
D03*
Y230472D02*
D03*
Y220472D02*
D03*
Y210472D02*
D03*
Y200472D02*
D03*
Y190472D02*
D03*
Y180473D02*
D03*
Y170473D02*
D03*
Y160473D02*
D03*
Y150472D02*
D03*
D20*
X535984Y360472D02*
D03*
D21*
X501968Y125984D02*
D03*
X663386D02*
D03*
X663386Y476378D02*
D03*
X501968Y476378D02*
D03*
D22*
X638651Y360472D02*
D03*
D23*
X532131Y418454D02*
D03*
Y428454D02*
D03*
Y438454D02*
D03*
Y448454D02*
D03*
Y458454D02*
D03*
X642131D02*
D03*
Y448454D02*
D03*
Y438454D02*
D03*
Y428454D02*
D03*
Y418454D02*
D03*
X612131Y428454D02*
D03*
Y418454D02*
D03*
D24*
X500189Y459260D02*
D03*
Y417646D02*
D03*
Y306102D02*
D03*
Y336614D02*
D03*
Y309764D02*
D03*
Y279252D02*
D03*
X500000Y190945D02*
D03*
Y144685D02*
D03*
X518701Y295138D02*
D03*
Y325650D02*
D03*
Y175236D02*
D03*
Y180157D02*
D03*
X523622Y149606D02*
D03*
M02*
