G04*
G04 #@! TF.GenerationSoftware,Altium Limited,Altium Designer,23.8.1 (32)*
G04*
G04 Layer_Color=32768*
%FSLAX25Y25*%
%MOIN*%
G70*
G04*
G04 #@! TF.SameCoordinates,42C2680F-6346-4846-91F9-FAAF1016F3F0*
G04*
G04*
G04 #@! TF.FilePolarity,Positive*
G04*
G01*
G75*
%ADD42C,0.00197*%
D42*
X530000Y391772D02*
X631968D01*
Y115669D02*
Y391772D01*
X530000Y115669D02*
X631968D01*
X530000D02*
Y391772D01*
X517709Y279980D02*
Y305374D01*
X493693Y279980D02*
X517709D01*
X493693D02*
Y305374D01*
X517709D01*
Y310492D02*
Y335886D01*
X493693Y310492D02*
X517709D01*
X493693D02*
Y335886D01*
X517709D01*
X493692Y190394D02*
X517708D01*
Y145315D02*
Y190394D01*
X493692Y145315D02*
X517708D01*
X493692D02*
Y190394D01*
X517709Y418374D02*
Y458532D01*
X493693Y418374D02*
X517709D01*
X493693D02*
Y458532D01*
X517709D01*
X632666Y366457D02*
X644635D01*
X632666Y144488D02*
Y366457D01*
Y144488D02*
X644635D01*
Y366457D01*
X526147Y484399D02*
X648194D01*
Y392470D02*
Y484399D01*
X526147Y392470D02*
X648194D01*
X526147D02*
Y484399D01*
M02*
